<svg version="1.1" xmlns="http://www.w3.org/2000/svg" xmlns:xlink="http://www.w3.org/1999/xlink" x="0px" y="0px" viewBox="0 0 363.115 390.879" enable-background="new 0 0 363.115 391.831"
	 xml:space="preserve">
<g>
	<path fill-rule="evenodd" clip-rule="evenodd" d="M356.81,391.831c-116.835,0-233.67,0-350.504,0
		C1.558,389.898-0.003,386.36,0,381.295C0.089,257.708,0.089,134.122,0,10.535C-0.003,5.47,1.558,1.932,6.306,0
		c73.723,0,147.445,0,221.17,0c5.129,1.821,6.475,5.708,6.456,10.794c-0.106,27.148-0.055,54.297-0.036,81.447
		c0.001,1.587,0.188,3.175,0.301,4.971c1.957,0,3.477,0,4.996,0c37.855,0,75.711-0.004,113.566,0.004
		c7.788,0.001,10.279,2.481,10.281,10.304c0.01,91.262-0.021,182.522,0.076,273.784C363.121,386.368,361.552,389.899,356.81,391.831
		z M218.113,375.891c0-120.032,0-239.845,0-359.766c-67.569,0-134.913,0-202.417,0c0,120.058,0,239.764,0,359.766
		C83.239,375.891,150.621,375.891,218.113,375.891z M233.883,375.812c38.112,0,75.663,0,113.696,0c0-1.73,0-3.224,0-4.715
		c0-84.538,0-169.075,0-253.613c0-4.865-0.007-4.87-5.068-4.87c-34.555-0.002-69.109-0.002-103.664,0
		c-4.953,0-4.963,0.006-4.963,4.988c-0.002,84.539-0.001,169.076-0.001,253.614C233.883,372.601,233.883,373.985,233.883,375.812z"
		/>
	<path fill-rule="evenodd" clip-rule="evenodd" d="M87.417,331.888c0.221-3.569,0.172-7.025,0.711-10.39
		c0.588-3.676,3.702-6.047,7.223-6.112c3.494-0.065,7.129,2.252,7.363,5.868c0.457,7.059,0.483,14.189,0.016,21.246
		c-0.252,3.799-3.586,5.881-7.307,5.847c-3.695-0.033-6.652-2.188-7.272-5.977C87.579,338.887,87.632,335.3,87.417,331.888z"/>
	<path fill-rule="evenodd" clip-rule="evenodd" d="M44.655,115.104c0-2.797-0.116-5.6,0.027-8.389
		c0.246-4.813,3.205-7.897,7.483-8.021c4.434-0.129,7.615,2.55,7.889,7.475c0.331,5.951,0.323,11.947-0.001,17.898
		c-0.262,4.805-3.634,7.681-7.892,7.515c-4.23-0.164-7.237-3.329-7.479-8.091C44.54,120.703,44.655,117.9,44.655,115.104z"/>
	<path fill-rule="evenodd" clip-rule="evenodd" d="M103.333,115.063c0.002,2.671,0.112,5.347-0.021,8.012
		c-0.264,5.233-3.408,8.564-7.871,8.526c-4.351-0.038-7.537-3.2-7.744-8.241c-0.225-5.459-0.217-10.942-0.008-16.404
		c0.197-5.136,3.233-8.209,7.646-8.276c4.574-0.071,7.675,3.106,7.97,8.372C103.454,109.713,103.331,112.391,103.333,115.063z"/>
	<path fill-rule="evenodd" clip-rule="evenodd" d="M146.245,115.495c0,2.67,0.129,5.347-0.027,8.008
		c-0.283,4.813-3.266,7.941-7.483,8.081c-4.214,0.139-7.666-2.771-7.941-7.531c-0.345-5.95-0.351-11.952,0.007-17.9
		c0.297-4.927,3.514-7.595,7.926-7.457c4.281,0.133,7.212,3.171,7.488,8.029C146.38,109.639,146.245,112.571,146.245,115.495z"/>
	<path fill-rule="evenodd" clip-rule="evenodd" d="M146.259,169.455c-0.002,2.679,0.109,5.362-0.026,8.033
		c-0.251,4.958-3.437,8.308-7.746,8.338c-4.116,0.029-7.507-3.083-7.761-7.864c-0.303-5.721-0.313-11.482-0.006-17.202
		c0.277-5.139,3.508-7.976,8.049-7.812c4.43,0.161,7.273,3.324,7.474,8.475C146.347,164.096,146.261,166.777,146.259,169.455z"/>
	<path fill-rule="evenodd" clip-rule="evenodd" d="M44.657,223.462c0-2.806-0.131-5.618,0.029-8.414
		c0.272-4.751,3.376-7.864,7.66-7.923c4.168-0.058,7.434,2.704,7.679,7.354c0.323,6.095,0.31,12.234-0.036,18.327
		c-0.256,4.494-3.82,7.431-7.813,7.249c-4.066-0.187-7.174-3.304-7.469-7.798c-0.191-2.92-0.036-5.862-0.036-8.795
		C44.667,223.462,44.662,223.462,44.657,223.462z"/>
	<path fill-rule="evenodd" clip-rule="evenodd" d="M60.439,278.004c-0.177,3.245-0.145,6.578-0.591,9.845
		c-0.517,3.774-3.381,6.113-7.061,6.278c-3.655,0.164-7.303-1.936-7.554-5.609c-0.492-7.201-0.473-14.484,0.028-21.686
		c0.248-3.558,4.196-5.855,7.604-5.605c3.602,0.265,6.512,2.713,6.991,6.418C60.298,271.042,60.262,274.5,60.439,278.004z"/>
	<path fill-rule="evenodd" clip-rule="evenodd" d="M146.237,277.908c-0.002,2.794,0.156,5.598-0.037,8.377
		c-0.33,4.766-3.416,7.812-7.676,7.86c-4.109,0.047-7.422-2.715-7.692-7.325c-0.355-6.065-0.35-12.184,0.01-18.25
		c0.269-4.537,3.714-7.438,7.694-7.37c4.163,0.072,7.354,3.256,7.666,7.95C146.396,272.057,146.238,274.988,146.237,277.908z"/>
	<path fill-rule="evenodd" clip-rule="evenodd" d="M146.239,332.101c0.002,2.797,0.152,5.604-0.032,8.389
		c-0.31,4.657-3.175,7.615-7.286,7.817c-4.398,0.217-7.8-2.463-8.094-7.279c-0.371-6.072-0.349-12.2,0.014-18.275
		c0.275-4.59,3.65-7.423,7.697-7.362c4.195,0.063,7.352,3.213,7.662,7.94C146.393,326.243,146.236,329.176,146.239,332.101z"/>
	<path fill-rule="evenodd" clip-rule="evenodd" d="M44.657,61.01c-0.004-2.804-0.116-5.614,0.022-8.412
		c0.235-4.784,3.247-7.97,7.483-8.129c4.244-0.159,7.65,2.768,7.901,7.576c0.312,5.968,0.317,11.982-0.038,17.947
		c-0.291,4.883-3.594,7.536-8.066,7.305c-4.107-0.211-7.007-3.25-7.27-7.875C44.532,66.625,44.661,63.814,44.657,61.01z"/>
	<path fill-rule="evenodd" clip-rule="evenodd" d="M103.331,169.394c0,2.667,0.124,5.341-0.025,8
		c-0.282,4.997-3.334,8.283-7.623,8.43c-4.361,0.147-7.805-3.259-7.999-8.396c-0.206-5.454-0.221-10.93,0.017-16.381
		c0.223-5.101,3.328-8.124,7.759-8.134c4.422-0.01,7.485,3.053,7.826,8.101c0.188,2.781,0.034,5.586,0.034,8.381
		C103.323,169.394,103.327,169.394,103.331,169.394z"/>
	<path fill-rule="evenodd" clip-rule="evenodd" d="M103.331,223.602c0,2.668,0.121,5.342-0.025,8.001
		c-0.28,5.101-3.629,8.579-7.967,8.472c-4.24-0.106-7.468-3.422-7.653-8.383c-0.204-5.454-0.218-10.929,0.011-16.381
		c0.211-5.027,3.404-8.188,7.734-8.214c4.484-0.027,7.609,3.272,7.877,8.505C103.444,218.262,103.332,220.935,103.331,223.602z"/>
	<path fill-rule="evenodd" clip-rule="evenodd" d="M146.253,223.608c0.005,2.678,0.107,5.36-0.018,8.033
		c-0.232,5.007-3.314,8.323-7.658,8.423c-4.037,0.092-7.592-3.095-7.835-7.782c-0.304-5.847-0.312-11.737,0.034-17.581
		c0.289-4.879,3.604-7.707,7.904-7.563c4.301,0.145,7.254,3.202,7.537,8.056C146.382,217.989,146.248,220.802,146.253,223.608z"/>
	<path fill-rule="evenodd" clip-rule="evenodd" d="M103.331,277.765c-0.003,2.668,0.121,5.342-0.029,8.002
		c-0.295,5.226-3.462,8.478-7.974,8.388c-4.383-0.086-7.44-3.192-7.64-8.305c-0.212-5.454-0.221-10.931,0.003-16.384
		c0.204-4.949,3.509-8.251,7.743-8.284c4.353-0.035,7.616,3.445,7.875,8.581C103.443,272.423,103.333,275.097,103.331,277.765z"/>
	<path fill-rule="evenodd" clip-rule="evenodd" d="M44.661,331.731c0.002-2.798-0.133-5.602,0.032-8.389
		c0.278-4.7,3.438-7.888,7.638-7.952c4.068-0.063,7.43,2.79,7.681,7.355c0.334,6.077,0.348,12.199,0.017,18.276
		c-0.257,4.711-3.398,7.351-7.65,7.31c-4.289-0.04-7.406-3.108-7.688-7.831C44.518,337.587,44.659,334.655,44.661,331.731z"/>
	<path fill-rule="evenodd" clip-rule="evenodd" d="M103.313,60.936c-0.001,2.806,0.168,5.625-0.038,8.415
		c-0.359,4.88-3.352,7.885-7.621,7.967c-4.47,0.085-7.705-2.917-7.939-7.995c-0.258-5.599-0.256-11.229,0.004-16.828
		c0.231-4.977,3.639-8.151,7.964-8.03c4.2,0.117,7.247,3.227,7.595,8.057C103.478,55.313,103.313,58.13,103.313,60.936z"/>
	<path fill-rule="evenodd" clip-rule="evenodd" d="M146.249,61.146c0,2.677,0.119,5.361-0.025,8.03
		c-0.265,4.885-3.166,7.97-7.438,8.127c-4.39,0.162-7.699-2.564-7.988-7.452c-0.352-5.965-0.338-11.983,0.018-17.949
		c0.277-4.657,3.557-7.461,7.657-7.443c4.255,0.019,7.404,3.114,7.726,7.891c0.197,2.919,0.037,5.862,0.037,8.794
		C146.239,61.146,146.245,61.146,146.249,61.146z"/>
	<path fill-rule="evenodd" clip-rule="evenodd" d="M60.448,169.293c-0.189,3.453-0.156,6.912-0.626,10.302
		c-0.501,3.618-3.63,6.103-7.173,6.226c-3.286,0.114-7.12-2.113-7.34-5.472c-0.479-7.323-0.529-14.727,0.004-22.042
		c0.266-3.658,3.92-5.57,7.69-5.338c3.541,0.219,6.315,2.448,6.814,6.053C60.288,162.412,60.259,165.871,60.448,169.293z"/>
	<path fill-rule="evenodd" clip-rule="evenodd" d="M189.159,331.918c0,3.05,0.161,6.111-0.039,9.148
		c-0.282,4.289-3.324,7.148-7.368,7.256c-4.3,0.115-7.65-2.647-7.832-7.105c-0.255-6.215-0.235-12.455,0.004-18.672
		c0.162-4.204,3.487-7.106,7.47-7.156c4.08-0.051,7.33,3.036,7.764,7.378c0.025,0.253,0.045,0.508,0.045,0.762
		c0.004,2.796,0.002,5.593,0.002,8.39C189.188,331.918,189.174,331.918,189.159,331.918z"/>
	<path fill-rule="evenodd" clip-rule="evenodd" d="M189.198,60.949c0,2.804,0.098,5.612-0.021,8.412
		c-0.205,4.802-3.189,7.875-7.541,7.95c-4.42,0.075-7.625-2.85-7.79-7.628c-0.202-5.855-0.2-11.729,0.009-17.584
		c0.168-4.69,3.537-7.754,7.837-7.63c4.128,0.119,7.227,3.209,7.463,7.687c0.155,2.924,0.029,5.862,0.029,8.794
		C189.188,60.949,189.193,60.949,189.198,60.949z"/>
	<path fill-rule="evenodd" clip-rule="evenodd" d="M189.188,115.047c0,2.924,0.117,5.853-0.027,8.77
		c-0.232,4.679-3.418,7.803-7.707,7.771c-4.191-0.031-7.418-2.954-7.576-7.454c-0.213-6.091-0.219-12.204,0.036-18.292
		c0.188-4.484,3.479-7.246,7.78-7.15c4.046,0.09,7.121,2.938,7.416,7.209c0.21,3.036,0.041,6.097,0.041,9.147
		C189.163,115.047,189.176,115.047,189.188,115.047z"/>
	<path fill-rule="evenodd" clip-rule="evenodd" d="M189.164,223.478c0,3.059,0.161,6.127-0.038,9.174
		c-0.285,4.334-3.729,7.493-7.76,7.415c-3.898-0.076-7.304-3.104-7.455-7.262c-0.226-6.234-0.234-12.491,0.034-18.723
		c0.183-4.237,3.546-6.994,7.64-6.933c4.076,0.062,7.217,2.901,7.523,7.154c0.221,3.043,0.043,6.114,0.043,9.174
		C189.155,223.478,189.159,223.478,189.164,223.478z"/>
	<path fill-rule="evenodd" clip-rule="evenodd" d="M189.193,277.913c0,2.805,0.11,5.614-0.025,8.412
		c-0.229,4.719-3.359,7.804-7.71,7.797c-4.227-0.008-7.42-2.901-7.584-7.444c-0.217-5.982-0.215-11.984,0.002-17.967
		c0.159-4.422,3.541-7.511,7.608-7.507c4.056,0.004,7.391,3.162,7.653,7.532c0.182,3.049,0.035,6.116,0.035,9.177
		C189.179,277.913,189.187,277.913,189.193,277.913z"/>
	<path fill-rule="evenodd" clip-rule="evenodd" d="M189.187,169.241c0,2.932,0.123,5.869-0.028,8.794
		c-0.238,4.6-3.612,7.873-7.8,7.786c-4.112-0.085-7.35-3.139-7.498-7.629c-0.198-5.982-0.207-11.984,0.029-17.965
		c0.182-4.537,3.398-7.338,7.695-7.289c4.229,0.05,7.212,2.998,7.59,7.507c0.021,0.253,0.033,0.509,0.033,0.764
		c0.002,2.677,0.001,5.354,0.001,8.032C189.202,169.241,189.194,169.241,189.187,169.241z"/>
</g>
</svg>
