<svg version="1.1" id="Layer_1" xmlns="http://www.w3.org/2000/svg" xmlns:xlink="http://www.w3.org/1999/xlink" x="0px" y="0px"
	 width="369.25px" viewBox="0 0 369.25 86.609" enable-background="new 0 0 369.25 86.609" xml:space="preserve">
<g>
	<g>
		<g>
			<polygon fill="#FFFFFF" points="1.218,70.01 35.472,70.01 35.472,55.887 16.478,55.887 16.478,52.802 32.388,52.802 
				32.388,40.789 16.478,40.789 16.478,37.623 35.472,37.623 35.472,23.5 1.218,23.5 			"/>
			<path fill="#FFFFFF" d="M64.369,23.418l-5.195,10.31l-5.438-10.31H37.582l4.708,9.335c1.244,2.327,2.421,4.655,3.531,6.981
				c1.109,2.327,2.232,4.654,3.369,6.979L37.582,70.01h16.397c0.812-1.568,1.65-3.246,2.516-5.032
				c0.865-1.786,1.731-3.49,2.598-5.114l5.601,10.146h15.829L74.921,58.89l-6.088-12.177l11.689-23.296H64.369L64.369,23.418z"/>
			<path fill="#FFFFFF" d="M112.99,28.167c-2.003-1.542-4.357-2.719-7.063-3.531c-2.707-0.812-5.601-1.218-8.686-1.218H82.794V70.01
				h15.26v-9.335c0.27,0.056,0.621,0.082,1.055,0.082c0.433,0,0.784,0,1.055,0c2.326,0,4.572-0.392,6.737-1.177
				c2.164-0.784,4.099-1.879,5.804-3.287c1.705-1.406,3.138-3.085,4.302-5.033c1.163-1.947,1.907-4.059,2.232-6.331
				c0.163-1.027,0.244-2.138,0.244-3.328c0-2.868-0.582-5.438-1.745-7.711C116.574,31.617,114.992,29.709,112.99,28.167z
				 M102.925,44.575c-0.704,0.67-1.57,1.003-2.598,1.003h-2.272v-6.98h2.272c1.027,0,1.894,0.335,2.598,1.003
				c0.703,0.669,1.055,1.484,1.055,2.445C103.98,43.064,103.627,43.906,102.925,44.575z"/>
			<polygon fill="#FFFFFF" points="121.188,70.01 155.442,70.01 155.442,55.887 136.448,55.887 136.448,52.802 152.358,52.802 
				152.358,40.789 136.448,40.789 136.448,37.623 155.442,37.623 155.442,23.5 121.188,23.5 			"/>
			<path fill="#FFFFFF" d="M192.253,47.688c0.894-2.219,1.339-4.464,1.339-6.737c0-2.218-0.447-4.396-1.339-6.534
				c-0.894-2.137-2.206-4.044-3.937-5.723c-1.517-1.569-3.328-2.841-5.438-3.815c-2.11-0.974-4.275-1.461-6.494-1.461h-18.669V70.01
				h15.26V59.134c0-0.216,0.053-0.418,0.162-0.608c0.108-0.189,0.459,0,1.055,0.567c0.595,0.568,1.542,1.679,2.841,3.328
				c1.298,1.651,3.138,4.181,5.52,7.589h16.396l-10.633-16.314C190.048,51.91,191.359,49.908,192.253,47.688z M177.764,43.305
				c-0.704,0.703-1.57,1.055-2.598,1.055h-2.354v-7.144h2.354c1.027,0,1.894,0.354,2.598,1.056c0.703,0.704,1.055,1.542,1.055,2.517
				C178.819,41.764,178.467,42.603,177.764,43.305z"/>
			<polygon fill="#FFFFFF" points="200.329,38.029 209.745,38.029 209.745,70.01 225.006,70.01 225.006,38.029 234.34,38.029 
				234.34,23.418 200.329,23.418 			"/>
			<polygon fill="#FFFFFF" points="241.307,70.01 265.376,70.01 265.376,67.179 244.379,67.179 244.379,48.291 264.201,48.291 
				264.201,45.459 244.379,45.459 244.379,28.8 265.376,28.8 265.376,25.968 241.307,25.968 			"/>
			<path fill="#FFFFFF" d="M286.825,25.787L269.111,70.01h3.404l6.146-15.544h17.894l6.116,15.544h3.464l-17.352-44.224H286.825z
				 M295.531,51.695h-15.756l6.176-15.815c0.643-1.566,1.234-3.313,1.777-5.241c0.703,2.209,1.306,3.937,1.808,5.182L295.531,51.695
				z"/>
			<path fill="#FFFFFF" d="M331.711,49.722c-1.729-1.115-4.309-2.265-7.742-3.449c-3.273-1.165-5.583-2.164-6.929-2.998
				c-1.347-0.833-2.315-1.772-2.907-2.817c-0.593-1.044-0.889-2.38-0.889-4.006c0-2.591,0.964-4.639,2.893-6.146
				c1.928-1.507,4.52-2.26,7.771-2.26c3.334,0,6.828,0.764,10.482,2.289l1.115-2.65c-3.636-1.566-7.521-2.351-11.658-2.351
				c-4.058,0-7.375,1.039-9.957,3.118c-2.58,2.079-3.871,4.765-3.871,8.059c0,2.993,0.859,5.389,2.576,7.186
				s4.824,3.469,9.323,5.016c3.073,1.044,5.401,2.02,6.989,2.922c1.586,0.904,2.73,1.903,3.435,2.998
				c0.702,1.096,1.054,2.477,1.054,4.143c0,2.691-1.06,4.865-3.178,6.521c-2.119,1.657-4.984,2.485-8.601,2.485
				c-4.921,0-8.968-0.673-12.142-2.018v3.072c2.873,1.186,7,1.777,12.383,1.777c4.478,0,8.067-1.074,10.77-3.224
				c2.7-2.148,4.052-5.062,4.052-8.736c0-2.008-0.396-3.721-1.189-5.137C334.698,52.102,333.438,50.836,331.711,49.722z"/>
			<polygon fill="#FFFFFF" points="370.061,28.8 370.061,25.968 345.991,25.968 345.991,70.01 370.061,70.01 370.061,67.179 
				349.063,67.179 349.063,48.291 368.886,48.291 368.886,45.459 349.063,45.459 349.063,28.8 			"/>
		</g>
	</g>
</g>
</svg>
