<?xml version="1.0" encoding="utf-8"?>
<!-- Generator: Adobe Illustrator 16.0.0, SVG Export Plug-In . SVG Version: 6.00 Build 0)  -->
<!DOCTYPE svg PUBLIC "-//W3C//DTD SVG 1.1//EN" "http://www.w3.org/Graphics/SVG/1.1/DTD/svg11.dtd">
<svg version="1.1" id="Layer_1" xmlns="http://www.w3.org/2000/svg" xmlns:xlink="http://www.w3.org/1999/xlink" x="0px" y="0px"
	 width="281.761px" height="273.74px" viewBox="0 0 281.761 273.74" enable-background="new 0 0 281.761 273.74"
	 xml:space="preserve">
<g>
	<path fill-rule="evenodd" clip-rule="evenodd" d="M140.616,273.74c-33.694-0.172-66.691-4.138-98.069-16.727
		c-10.279-4.124-20.029-10.09-29.124-16.487c-8.198-5.768-13.589-13.951-13.419-24.929c0.139-9.013,4.416-15.75,10.518-21.583
		c11.561-11.052,25.72-17.772,40.794-22.117c13.938-4.017,28.26-6.738,42.488-9.666c2.145-0.441,5.164,0.474,6.989,1.827
		c14.057,10.413,29.339,16.36,47.143,14.074c12.181-1.564,22.652-6.938,32.443-14.09c1.839-1.344,4.762-2.127,7.013-1.836
		c21.853,2.827,43.296,7.646,62.816,18.121c8.658,4.646,17.056,10.684,23.804,17.771c10.413,10.938,10.269,25.062-0.063,36.117
		c-6.105,6.532-13.674,12.174-21.527,16.507c-21.495,11.858-45.179,17.101-69.326,19.942
		C169.011,272.323,154.78,272.756,140.616,273.74z"/>
	<path fill-rule="evenodd" clip-rule="evenodd" d="M140.439,0.149c39.699-2.863,85.657,36.529,72.413,93.112
		c-5.189,22.169-15.339,41.747-31.793,57.696c-25.313,24.538-55.537,24.736-80.737,0.152c-20.643-20.138-32.147-44.973-34.21-73.712
		C63.42,39.896,92.689,4.811,129.924,0.206C133.379-0.222,136.932,0.149,140.439,0.149z"/>
</g>
<g>
	<path fill-rule="evenodd" clip-rule="evenodd" d="M861.386-83.437c5.288,1.21,10.709,2.016,15.842,3.698
		c30.319,9.935,49.02,30.561,56.001,61.716c0.49,2.19,1.341,3.395,3.652,4.116c31.979,9.971,52.282,40.298,49.595,75.352
		c-2.36,30.795-25.192,58.128-58.103,64.083c-3.481,0.631-7.075,0.885-10.617,0.889c-49.861,0.057-99.728-0.319-149.584,0.177
		c-28.327,0.282-51.403-18.76-60.132-42.488c-9.749-26.505-2.41-52.987,19.494-70.969c1.978-1.624,1.953-3.24,1.681-5.317
		c-3.077-23.451,11.58-44.654,34.688-49.585c4.87-1.04,10.088-0.745,15.128-0.566c2.318,0.082,3.681-0.245,4.953-2.283
		c10.957-17.543,26.431-29.321,46.201-35.246c5.668-1.699,11.632-2.412,17.459-3.576C852.225-83.437,856.806-83.437,861.386-83.437z
		 M841.894,111.964c25.058,0,50.115,0.002,75.174-0.001c30.706-0.003,56.775-28.144,55.449-58.947
		c-1.103-25.574-19.234-49.671-45.429-54.639c-4.225-0.801-6.276-3.431-6.892-7.522c-0.472-3.136-0.934-6.29-1.67-9.371
		c-8.972-37.557-50.713-59.886-86.906-46.674c-16.739,6.111-29.362,16.794-37.837,32.475c-3.441,6.365-5.563,7.202-12.307,5.524
		c-23.526-5.852-43.041,13.767-37.002,37.2c1.633,6.335,0.985,8.048-4.55,11.807c-13.544,9.2-20.791,21.941-21.502,38.323
		c-1.146,26.47,21.21,52.57,49.063,51.943C792.276,111.522,817.09,111.964,841.894,111.964z"/>
	<path fill-rule="evenodd" clip-rule="evenodd" d="M841.536,307.443c-8.695-2.246-15.861-6.449-20.01-14.904
		c-6.676-13.602-0.734-30.215,13.317-36.014c2.855-1.178,3.356-2.652,3.349-5.348c-0.077-28.609-0.054-57.217-0.032-85.826
		c0.001-1.771,0.026-3.584,0.384-5.309c0.694-3.351,3.867-5.539,7.347-5.319c3.391,0.214,5.938,2.53,6.37,5.946
		c0.19,1.506,0.187,3.043,0.187,4.566c0.01,28.482,0.044,56.963-0.046,85.445c-0.009,2.969,0.521,4.609,3.686,5.9
		c9.896,4.039,16.467,14.941,15.859,25.219c-0.674,11.396-8.067,20.92-18.851,24.301c-1.319,0.414-2.617,0.895-3.925,1.342
		C846.626,307.443,844.081,307.443,841.536,307.443z M833.86,280.972c0.056,6.373,5.403,11.746,11.595,11.65
		c6.169-0.094,11.658-5.59,11.723-11.734c0.067-6.496-5.302-11.689-11.985-11.588C838.599,269.398,833.802,274.339,833.86,280.972z"
		/>
	<path fill-rule="evenodd" clip-rule="evenodd" d="M895.69,185.033c0,6.871-0.056,13.742,0.015,20.611
		c0.091,8.918,5.727,14.967,14.605,15.303c7.115,0.27,14.251-0.045,21.371,0.137c2.54,0.064,2.786-1.637,3.472-3.229
		c7.924-18.398,32.212-22.006,44.891-6.551c6.914,8.43,8.144,18.014,3.645,27.854c-4.728,10.34-13.297,15.678-24.62,15.502
		c-11.024-0.172-19.108-5.752-23.64-15.795c-1.308-2.898-2.83-3.523-5.681-3.508c-7.624,0.047-15.274,0.104-22.872-0.436
		c-13.382-0.951-24.979-12.506-25.463-26.043c-0.559-15.631-0.28-31.293-0.203-46.939c0.021-4.379,3.221-7.297,7.25-7.247
		c4.089,0.05,7.064,3.058,7.172,7.821c0.169,7.504,0.045,15.014,0.045,22.52C895.682,185.033,895.687,185.033,895.69,185.033z
		 M971.343,227.853c-0.061-6.613-5.503-11.959-11.969-11.758c-6.327,0.197-11.548,5.564-11.564,11.891
		c-0.017,6.518,5.432,11.994,11.875,11.934C966.257,239.861,971.404,234.533,971.343,227.853z"/>
	<path fill-rule="evenodd" clip-rule="evenodd" d="M809.578,185.378c0,6.482,0.053,12.967-0.01,19.449
		c-0.173,17.836-11.976,29.867-29.79,30.289c-6.479,0.152-12.968,0.131-19.447-0.021c-2.471-0.059-3.772,0.551-4.789,3.047
		c-4.184,10.289-14.836,17.105-25.172,16.482c-11.827-0.715-21.33-7.982-24.675-18.875c-4.083-13.293,3.08-27.898,15.987-32.605
		c13.447-4.904,28.148,1.188,33.657,14.238c1.153,2.732,2.514,3.563,5.326,3.467c5.968-0.201,11.947-0.02,17.921-0.07
		c10.928-0.094,16.407-5.584,16.427-16.457c0.023-13.348-0.036-26.695,0.052-40.041c0.013-1.982,0.243-4.143,1.059-5.902
		c1.527-3.296,4.524-4.41,7.981-3.572c3.501,0.85,5.363,3.368,5.406,6.93c0.097,7.881,0.03,15.762,0.03,23.643
		C809.554,185.378,809.566,185.378,809.578,185.378z M742.928,228.146c0.046-6.584-5.274-11.99-11.788-11.98
		c-6.375,0.01-11.61,5.223-11.698,11.65c-0.091,6.693,4.989,12.057,11.54,12.186C737.378,240.128,742.884,234.664,742.928,228.146z"
		/>
</g>
<g>
	<path fill-rule="evenodd" clip-rule="evenodd" d="M1425.455,288.198c-116.835,0-233.67,0-350.504,0
		c-4.748-1.933-6.309-5.471-6.306-10.535c0.089-123.587,0.089-247.174,0-370.761c-0.003-5.064,1.558-8.603,6.306-10.535
		c73.723,0,147.445,0,221.17,0c5.129,1.821,6.475,5.708,6.456,10.794c-0.106,27.148-0.055,54.297-0.036,81.447
		c0.001,1.587,0.188,3.175,0.301,4.971c1.957,0,3.477,0,4.996,0c37.855,0,75.711-0.004,113.566,0.004
		c7.788,0.001,10.279,2.481,10.281,10.304c0.01,91.262-0.021,182.522,0.076,273.784
		C1431.767,282.735,1430.197,286.266,1425.455,288.198z M1286.759,272.258c0-120.032,0-239.845,0-359.766
		c-67.569,0-134.913,0-202.417,0c0,120.058,0,239.764,0,359.766C1151.885,272.258,1219.267,272.258,1286.759,272.258z
		 M1302.528,272.179c38.112,0,75.663,0,113.696,0c0-1.73,0-3.224,0-4.715c0-84.538,0-169.075,0-253.613
		c0-4.865-0.007-4.87-5.068-4.87c-34.555-0.002-69.109-0.002-103.664,0c-4.953,0-4.963,0.006-4.963,4.988
		c-0.002,84.539-0.001,169.076-0.001,253.614C1302.528,268.968,1302.528,270.352,1302.528,272.179z"/>
	<path fill-rule="evenodd" clip-rule="evenodd" d="M1156.063,228.255c0.221-3.569,0.172-7.025,0.711-10.39
		c0.588-3.676,3.702-6.047,7.223-6.112c3.494-0.065,7.129,2.252,7.363,5.868c0.457,7.059,0.483,14.189,0.016,21.246
		c-0.252,3.799-3.586,5.881-7.307,5.847c-3.695-0.033-6.652-2.188-7.272-5.977C1156.225,235.254,1156.277,231.667,1156.063,228.255z
		"/>
	<path fill-rule="evenodd" clip-rule="evenodd" d="M1113.301,11.472c0-2.797-0.116-5.6,0.027-8.389
		c0.246-4.813,3.205-7.897,7.483-8.021c4.434-0.129,7.615,2.55,7.889,7.475c0.331,5.951,0.323,11.947-0.001,17.898
		c-0.262,4.805-3.634,7.681-7.892,7.515c-4.23-0.164-7.237-3.329-7.479-8.091C1113.186,17.07,1113.301,14.267,1113.301,11.472z"/>
	<path fill-rule="evenodd" clip-rule="evenodd" d="M1171.979,11.43c0.002,2.671,0.112,5.347-0.021,8.012
		c-0.264,5.233-3.408,8.564-7.871,8.526c-4.351-0.038-7.537-3.2-7.744-8.241c-0.225-5.459-0.217-10.942-0.008-16.404
		c0.197-5.136,3.233-8.209,7.646-8.276c4.574-0.071,7.675,3.106,7.97,8.372C1172.1,6.08,1171.977,8.758,1171.979,11.43z"/>
	<path fill-rule="evenodd" clip-rule="evenodd" d="M1214.891,11.862c0,2.67,0.129,5.347-0.027,8.008
		c-0.283,4.813-3.266,7.941-7.483,8.081c-4.214,0.139-7.666-2.771-7.941-7.531c-0.345-5.95-0.351-11.952,0.007-17.9
		c0.297-4.927,3.514-7.595,7.926-7.457c4.281,0.133,7.212,3.171,7.488,8.029C1215.025,6.006,1214.891,8.938,1214.891,11.862z"/>
	<path fill-rule="evenodd" clip-rule="evenodd" d="M1214.904,65.822c-0.002,2.679,0.109,5.362-0.026,8.033
		c-0.251,4.958-3.437,8.308-7.746,8.338c-4.116,0.029-7.507-3.083-7.761-7.864c-0.303-5.721-0.313-11.482-0.006-17.202
		c0.277-5.139,3.508-7.976,8.049-7.812c4.43,0.161,7.273,3.324,7.474,8.475C1214.992,60.463,1214.906,63.144,1214.904,65.822z"/>
	<path fill-rule="evenodd" clip-rule="evenodd" d="M1113.303,119.83c0-2.806-0.131-5.618,0.029-8.414
		c0.272-4.751,3.376-7.864,7.66-7.923c4.168-0.058,7.434,2.704,7.679,7.354c0.323,6.095,0.31,12.234-0.036,18.327
		c-0.256,4.494-3.82,7.431-7.813,7.249c-4.066-0.187-7.174-3.304-7.469-7.798c-0.191-2.92-0.036-5.862-0.036-8.795
		C1113.313,119.83,1113.308,119.83,1113.303,119.83z"/>
	<path fill-rule="evenodd" clip-rule="evenodd" d="M1129.085,174.372c-0.177,3.245-0.145,6.578-0.591,9.845
		c-0.517,3.774-3.381,6.113-7.061,6.278c-3.655,0.164-7.303-1.936-7.554-5.609c-0.492-7.201-0.473-14.484,0.028-21.686
		c0.248-3.558,4.196-5.855,7.604-5.605c3.602,0.265,6.512,2.713,6.991,6.418C1128.943,167.409,1128.907,170.867,1129.085,174.372z"
		/>
	<path fill-rule="evenodd" clip-rule="evenodd" d="M1214.883,174.275c-0.002,2.794,0.156,5.598-0.037,8.377
		c-0.33,4.766-3.416,7.812-7.676,7.86c-4.109,0.047-7.422-2.715-7.692-7.325c-0.355-6.065-0.35-12.184,0.01-18.25
		c0.269-4.537,3.714-7.438,7.694-7.37c4.163,0.072,7.354,3.256,7.666,7.95C1215.041,168.424,1214.884,171.355,1214.883,174.275z"/>
	<path fill-rule="evenodd" clip-rule="evenodd" d="M1214.885,228.468c0.002,2.797,0.152,5.604-0.032,8.389
		c-0.31,4.657-3.175,7.615-7.286,7.817c-4.398,0.217-7.8-2.463-8.094-7.279c-0.371-6.072-0.349-12.2,0.014-18.275
		c0.275-4.59,3.65-7.423,7.697-7.362c4.195,0.063,7.352,3.213,7.662,7.94C1215.038,222.61,1214.882,225.543,1214.885,228.468z"/>
	<path fill-rule="evenodd" clip-rule="evenodd" d="M1113.303-42.623c-0.004-2.804-0.116-5.614,0.022-8.412
		c0.235-4.784,3.247-7.97,7.483-8.129c4.244-0.159,7.65,2.768,7.901,7.576c0.312,5.968,0.317,11.982-0.038,17.947
		c-0.291,4.883-3.594,7.536-8.066,7.305c-4.107-0.211-7.007-3.25-7.27-7.875C1113.178-37.007,1113.307-39.819,1113.303-42.623z"/>
	<path fill-rule="evenodd" clip-rule="evenodd" d="M1171.977,65.761c0,2.667,0.124,5.341-0.025,8
		c-0.282,4.997-3.334,8.283-7.623,8.43c-4.361,0.147-7.805-3.259-7.999-8.396c-0.206-5.454-0.221-10.93,0.017-16.381
		c0.223-5.101,3.328-8.124,7.759-8.134c4.422-0.01,7.485,3.053,7.826,8.101c0.188,2.781,0.034,5.586,0.034,8.381
		C1171.969,65.761,1171.973,65.761,1171.977,65.761z"/>
	<path fill-rule="evenodd" clip-rule="evenodd" d="M1171.977,119.969c0,2.668,0.121,5.342-0.025,8.001
		c-0.28,5.101-3.629,8.579-7.967,8.472c-4.24-0.106-7.468-3.422-7.653-8.383c-0.204-5.454-0.218-10.929,0.011-16.381
		c0.211-5.027,3.404-8.188,7.734-8.214c4.484-0.027,7.609,3.272,7.877,8.505C1172.09,114.629,1171.978,117.302,1171.977,119.969z"/>
	<path fill-rule="evenodd" clip-rule="evenodd" d="M1214.898,119.975c0.005,2.678,0.107,5.36-0.018,8.033
		c-0.232,5.007-3.314,8.323-7.658,8.423c-4.037,0.092-7.592-3.095-7.835-7.782c-0.304-5.847-0.312-11.737,0.034-17.581
		c0.289-4.879,3.604-7.707,7.904-7.563c4.301,0.145,7.254,3.202,7.537,8.056C1215.027,114.356,1214.894,117.169,1214.898,119.975z"
		/>
	<path fill-rule="evenodd" clip-rule="evenodd" d="M1171.977,174.132c-0.003,2.668,0.121,5.342-0.029,8.002
		c-0.295,5.226-3.462,8.478-7.974,8.388c-4.383-0.086-7.44-3.192-7.64-8.305c-0.212-5.454-0.221-10.931,0.003-16.384
		c0.204-4.949,3.509-8.251,7.743-8.284c4.353-0.035,7.616,3.445,7.875,8.581C1172.089,168.791,1171.979,171.464,1171.977,174.132z"
		/>
	<path fill-rule="evenodd" clip-rule="evenodd" d="M1113.307,228.098c0.002-2.798-0.133-5.602,0.032-8.389
		c0.278-4.7,3.438-7.888,7.638-7.952c4.068-0.063,7.43,2.79,7.681,7.355c0.334,6.077,0.348,12.199,0.017,18.276
		c-0.257,4.711-3.398,7.351-7.65,7.31c-4.289-0.04-7.406-3.108-7.688-7.831C1113.163,233.955,1113.305,231.022,1113.307,228.098z"/>
	<path fill-rule="evenodd" clip-rule="evenodd" d="M1171.958-42.697c-0.001,2.806,0.168,5.625-0.038,8.415
		c-0.359,4.88-3.352,7.885-7.621,7.967c-4.47,0.085-7.705-2.917-7.939-7.995c-0.258-5.599-0.256-11.229,0.004-16.828
		c0.231-4.977,3.639-8.151,7.964-8.03c4.2,0.117,7.247,3.227,7.595,8.057C1172.123-48.32,1171.958-45.502,1171.958-42.697z"/>
	<path fill-rule="evenodd" clip-rule="evenodd" d="M1214.895-42.486c0,2.677,0.119,5.361-0.025,8.03
		c-0.265,4.885-3.166,7.97-7.438,8.127c-4.39,0.162-7.699-2.564-7.988-7.452c-0.352-5.965-0.338-11.983,0.018-17.949
		c0.277-4.657,3.557-7.461,7.657-7.443c4.255,0.019,7.404,3.114,7.726,7.891c0.197,2.919,0.037,5.862,0.037,8.794
		C1214.885-42.486,1214.891-42.486,1214.895-42.486z"/>
	<path fill-rule="evenodd" clip-rule="evenodd" d="M1129.094,65.661c-0.189,3.453-0.156,6.912-0.626,10.302
		c-0.501,3.618-3.63,6.103-7.173,6.226c-3.286,0.114-7.12-2.113-7.34-5.472c-0.479-7.323-0.529-14.727,0.004-22.042
		c0.266-3.658,3.92-5.57,7.69-5.338c3.541,0.219,6.315,2.448,6.814,6.053C1128.934,58.779,1128.904,62.238,1129.094,65.661z"/>
	<path fill-rule="evenodd" clip-rule="evenodd" d="M1257.805,228.286c0,3.05,0.161,6.111-0.039,9.148
		c-0.282,4.289-3.324,7.148-7.368,7.256c-4.3,0.115-7.65-2.647-7.832-7.105c-0.255-6.215-0.235-12.455,0.004-18.672
		c0.162-4.204,3.487-7.106,7.47-7.156c4.08-0.051,7.33,3.036,7.764,7.378c0.025,0.253,0.045,0.508,0.045,0.762
		c0.004,2.796,0.002,5.593,0.002,8.39C1257.834,228.286,1257.819,228.286,1257.805,228.286z"/>
	<path fill-rule="evenodd" clip-rule="evenodd" d="M1257.844-42.684c0,2.804,0.098,5.612-0.021,8.412
		c-0.205,4.802-3.189,7.875-7.541,7.95c-4.42,0.075-7.625-2.85-7.79-7.628c-0.202-5.855-0.2-11.729,0.009-17.584
		c0.168-4.69,3.537-7.754,7.837-7.63c4.128,0.119,7.227,3.209,7.463,7.687c0.155,2.924,0.029,5.862,0.029,8.794
		C1257.834-42.684,1257.839-42.684,1257.844-42.684z"/>
	<path fill-rule="evenodd" clip-rule="evenodd" d="M1257.834,11.415c0,2.924,0.117,5.853-0.027,8.77
		c-0.232,4.679-3.418,7.803-7.707,7.771c-4.191-0.031-7.418-2.954-7.576-7.454c-0.213-6.091-0.219-12.204,0.036-18.292
		c0.188-4.484,3.479-7.246,7.78-7.15c4.046,0.09,7.121,2.938,7.416,7.209c0.21,3.036,0.041,6.097,0.041,9.147
		C1257.809,11.415,1257.821,11.415,1257.834,11.415z"/>
	<path fill-rule="evenodd" clip-rule="evenodd" d="M1257.81,119.845c0,3.059,0.161,6.127-0.038,9.174
		c-0.285,4.334-3.729,7.493-7.76,7.415c-3.898-0.076-7.304-3.104-7.455-7.262c-0.226-6.234-0.234-12.491,0.034-18.723
		c0.183-4.237,3.546-6.994,7.64-6.933c4.076,0.062,7.217,2.901,7.523,7.154c0.221,3.043,0.043,6.114,0.043,9.174
		C1257.801,119.845,1257.805,119.845,1257.81,119.845z"/>
	<path fill-rule="evenodd" clip-rule="evenodd" d="M1257.839,174.28c0,2.805,0.11,5.614-0.025,8.412
		c-0.229,4.719-3.359,7.804-7.71,7.797c-4.227-0.008-7.42-2.901-7.584-7.444c-0.217-5.982-0.215-11.984,0.002-17.967
		c0.159-4.422,3.541-7.511,7.608-7.507c4.056,0.004,7.391,3.162,7.653,7.532c0.182,3.049,0.035,6.116,0.035,9.177
		C1257.824,174.28,1257.832,174.28,1257.839,174.28z"/>
	<path fill-rule="evenodd" clip-rule="evenodd" d="M1257.832,65.608c0,2.932,0.123,5.869-0.028,8.794
		c-0.238,4.6-3.612,7.873-7.8,7.786c-4.112-0.085-7.35-3.139-7.498-7.629c-0.198-5.982-0.207-11.984,0.029-17.965
		c0.182-4.537,3.398-7.338,7.695-7.289c4.229,0.05,7.212,2.998,7.59,7.507c0.021,0.253,0.033,0.509,0.033,0.764
		c0.002,2.677,0.001,5.354,0.001,8.032C1257.848,65.608,1257.84,65.608,1257.832,65.608z"/>
</g>
</svg>
