<svg version="1.1" xmlns="http://www.w3.org/2000/svg" xmlns:xlink="http://www.w3.org/1999/xlink" x="0px" y="0px" viewBox="0 0 282.905 390.879" enable-background="new 0 0 282.905 390.879"
	 xml:space="preserve">
<g>
	<path fill-rule="evenodd" clip-rule="evenodd" d="M157.577,0c5.288,1.21,10.709,2.016,15.842,3.698
		c30.319,9.935,49.02,30.561,56.001,61.716c0.49,2.19,1.341,3.395,3.652,4.116c31.979,9.971,52.282,40.298,49.595,75.352
		c-2.36,30.795-25.192,58.128-58.103,64.083c-3.481,0.631-7.075,0.885-10.617,0.889c-49.861,0.057-99.728-0.319-149.584,0.177
		c-28.327,0.282-51.403-18.76-60.132-42.488c-9.749-26.505-2.41-52.987,19.494-70.969c1.978-1.624,1.953-3.24,1.681-5.317
		c-3.077-23.451,11.58-44.654,34.688-49.585c4.87-1.04,10.088-0.745,15.128-0.566c2.318,0.082,3.681-0.245,4.953-2.283
		c10.957-17.543,26.431-29.321,46.201-35.246c5.668-1.699,11.632-2.412,17.459-3.576C148.416,0,152.997,0,157.577,0z M138.085,195.4
		c25.058,0,50.115,0.002,75.174-0.001c30.706-0.003,56.775-28.144,55.449-58.947c-1.103-25.574-19.234-49.671-45.429-54.639
		c-4.225-0.801-6.276-3.431-6.892-7.522c-0.472-3.136-0.934-6.29-1.67-9.371c-8.972-37.557-50.713-59.886-86.906-46.674
		c-16.739,6.111-29.362,16.794-37.837,32.475c-3.441,6.365-5.563,7.202-12.307,5.524c-23.526-5.852-43.041,13.767-37.002,37.2
		c1.633,6.335,0.985,8.048-4.55,11.807c-13.544,9.2-20.791,21.941-21.502,38.323c-1.146,26.47,21.21,52.57,49.063,51.943
		C88.468,194.959,113.281,195.4,138.085,195.4z"/>
	<path fill-rule="evenodd" clip-rule="evenodd" d="M137.728,390.879c-8.695-2.246-15.861-6.449-20.01-14.904
		c-6.676-13.602-0.734-30.215,13.317-36.014c2.855-1.178,3.356-2.652,3.349-5.348c-0.077-28.609-0.054-57.217-0.032-85.826
		c0.001-1.771,0.026-3.584,0.384-5.309c0.694-3.351,3.867-5.539,7.347-5.319c3.391,0.214,5.938,2.53,6.37,5.946
		c0.19,1.506,0.187,3.043,0.187,4.566c0.01,28.482,0.044,56.963-0.046,85.445c-0.009,2.969,0.521,4.609,3.686,5.9
		c9.896,4.039,16.467,14.941,15.859,25.219c-0.674,11.396-8.067,20.92-18.851,24.301c-1.319,0.414-2.617,0.895-3.925,1.342
		C142.817,390.879,140.272,390.879,137.728,390.879z M130.052,364.409c0.056,6.373,5.403,11.746,11.595,11.65
		c6.169-0.094,11.658-5.59,11.723-11.734c0.067-6.496-5.302-11.689-11.985-11.588C134.79,352.834,129.993,357.776,130.052,364.409z"
		/>
	<path fill-rule="evenodd" clip-rule="evenodd" d="M191.882,268.469c0,6.871-0.056,13.742,0.015,20.611
		c0.091,8.918,5.727,14.967,14.605,15.303c7.115,0.27,14.251-0.045,21.371,0.137c2.54,0.064,2.786-1.637,3.472-3.229
		c7.924-18.398,32.212-22.006,44.891-6.551c6.914,8.43,8.144,18.014,3.645,27.854c-4.728,10.34-13.297,15.678-24.62,15.502
		c-11.024-0.172-19.108-5.752-23.64-15.795c-1.308-2.898-2.83-3.523-5.681-3.508c-7.624,0.047-15.274,0.104-22.872-0.436
		c-13.382-0.951-24.979-12.506-25.463-26.043c-0.559-15.631-0.28-31.293-0.203-46.939c0.021-4.379,3.221-7.297,7.25-7.247
		c4.089,0.05,7.064,3.058,7.172,7.821c0.169,7.504,0.045,15.014,0.045,22.52C191.873,268.469,191.878,268.469,191.882,268.469z
		 M267.534,311.29c-0.061-6.613-5.503-11.959-11.969-11.758c-6.327,0.197-11.548,5.564-11.564,11.891
		c-0.017,6.518,5.432,11.994,11.875,11.934C262.448,323.297,267.596,317.969,267.534,311.29z"/>
	<path fill-rule="evenodd" clip-rule="evenodd" d="M105.77,268.815c0,6.482,0.053,12.967-0.01,19.449
		c-0.173,17.836-11.976,29.867-29.79,30.289c-6.479,0.152-12.968,0.131-19.447-0.021c-2.471-0.059-3.772,0.551-4.789,3.047
		c-4.184,10.289-14.836,17.105-25.172,16.482c-11.827-0.715-21.33-7.982-24.675-18.875c-4.083-13.293,3.08-27.898,15.987-32.605
		c13.447-4.904,28.148,1.188,33.657,14.238c1.153,2.732,2.514,3.563,5.326,3.467c5.968-0.201,11.947-0.02,17.921-0.07
		c10.928-0.094,16.407-5.584,16.427-16.457c0.023-13.348-0.036-26.695,0.052-40.041c0.013-1.982,0.243-4.143,1.059-5.902
		c1.527-3.296,4.524-4.41,7.981-3.572c3.501,0.85,5.363,3.368,5.406,6.93c0.097,7.881,0.03,15.762,0.03,23.643
		C105.745,268.815,105.758,268.815,105.77,268.815z M39.119,311.583c0.046-6.584-5.274-11.99-11.788-11.98
		c-6.375,0.01-11.61,5.223-11.698,11.65c-0.091,6.693,4.989,12.057,11.54,12.186C33.569,323.565,39.075,318.1,39.119,311.583z"/>
</g>
</svg>
